HIERARCHY
ROOT root
{
  OFFSET 0 93.2929 0
  CHANNELS 6 Xposition Yposition Zposition Zrotation Xrotation Yrotation
  JOINT torso_1
  {
    OFFSET 0 5.07867 -1.15138
    CHANNELS 6 Xposition Yposition Zposition Zrotation Xrotation Yrotation
    JOINT torso_2
    {
      OFFSET 0 5.61661 1.07143
      CHANNELS 6 Xposition Yposition Zposition Zrotation Xrotation Yrotation
      JOINT torso_3
      {
        OFFSET -1.02604e-17 5.98978 0.11501
        CHANNELS 6 Xposition Yposition Zposition Zrotation Xrotation Yrotation
        JOINT torso_4
        {
          OFFSET -1.10457e-17 6.50583 -0.443523
          CHANNELS 6 Xposition Yposition Zposition Zrotation Xrotation Yrotation
          JOINT torso_5
          {
            OFFSET -1.97295e-17 7.60548 -1.50593
            CHANNELS 6 Xposition Yposition Zposition Zrotation Xrotation Yrotation
            JOINT torso_6
            {
              OFFSET -2.53307e-17 9.49737 -0.914492
              CHANNELS 6 Xposition Yposition Zposition Zrotation Xrotation Yrotation
              JOINT torso_7
              {
                OFFSET -2.90401e-17 10.5513 1.57691
                CHANNELS 6 Xposition Yposition Zposition Zrotation Xrotation Yrotation
                JOINT neck_1
                {
                  OFFSET -1.29193e-17 4.78644 0.715339
                  CHANNELS 6 Xposition Yposition Zposition Zrotation Xrotation Yrotation
                  JOINT neck_2
                  {
                    OFFSET -1.8116e-17 4.82109 0.421791
                    CHANNELS 6 Xposition Yposition Zposition Zrotation Xrotation Yrotation
                    JOINT head
                    {
                      OFFSET -2.00958e-17 4.83041 0.765062
                      CHANNELS 6 Xposition Yposition Zposition Zrotation Xrotation Yrotation
                      End Site
                      {
                        OFFSET 0 0.1 0
                      }
                    }
                  }
                }
                JOINT l_shoulder
                {
                  OFFSET 1.23299 -7.60731 7.53374
                  CHANNELS 6 Xposition Yposition Zposition Zrotation Xrotation Yrotation
                  JOINT l_up_arm
                  {
                    OFFSET 12.9547 3.2495 -3.26872
                    CHANNELS 6 Xposition Yposition Zposition Zrotation Xrotation Yrotation
                    JOINT l_low_arm
                    {
                      OFFSET 29.2081 0.0598081 0.137039
                      CHANNELS 6 Xposition Yposition Zposition Zrotation Xrotation Yrotation
                      JOINT l_hand
                      {
                        OFFSET 24.234 0.0496219 0.113701
                        CHANNELS 6 Xposition Yposition Zposition Zrotation Xrotation Yrotation
                        End Site
                        {
                          OFFSET 0.1 0 0
                        }
                      }
                    }
                  }
                }
                JOINT r_shoulder
                {
                  OFFSET -1.23299 -7.60729 7.53365
                  CHANNELS 6 Xposition Yposition Zposition Zrotation Xrotation Yrotation
                  JOINT r_up_arm
                  {
                    OFFSET -12.9547 3.2495 -3.26872
                    CHANNELS 6 Xposition Yposition Zposition Zrotation Xrotation Yrotation
                    JOINT r_low_arm
                    {
                      OFFSET -29.2081 0.0598081 0.137039
                      CHANNELS 6 Xposition Yposition Zposition Zrotation Xrotation Yrotation
                      JOINT r_hand
                      {
                        OFFSET -24.234 0.0496218 0.113702
                        CHANNELS 6 Xposition Yposition Zposition Zrotation Xrotation Yrotation
                        End Site
                        {
                          OFFSET -0.1 0 0
                        }
                      }
                    }
                  }
                }
              }
            }
          }
        }
      }
    }
  }
  JOINT l_up_leg
  {
    OFFSET 9.23673 -4.20556 2.0327
    CHANNELS 6 Xposition Yposition Zposition Zrotation Xrotation Yrotation
    JOINT l_low_leg
    {
      OFFSET -0.852353 -38.7721 -0.655187
      CHANNELS 6 Xposition Yposition Zposition Zrotation Xrotation Yrotation
      JOINT l_foot
      {
        OFFSET -2.32622 -40.4017 -6.04875
        CHANNELS 6 Xposition Yposition Zposition Zrotation Xrotation Yrotation
        JOINT l_toes
        {
          OFFSET 0.779096 -9.8844 12.4959
          CHANNELS 6 Xposition Yposition Zposition Zrotation Xrotation Yrotation
          End Site
          {
            OFFSET 0 0 0.1
          }
        }
      }
    }
  }
  JOINT r_up_leg
  {
    OFFSET -9.23673 -4.20556 2.0327
    CHANNELS 6 Xposition Yposition Zposition Zrotation Xrotation Yrotation
    JOINT r_low_leg
    {
      OFFSET 0.852353 -38.7721 -0.655187
      CHANNELS 6 Xposition Yposition Zposition Zrotation Xrotation Yrotation
      JOINT r_foot
      {
        OFFSET 2.32622 -40.4017 -6.04875
        CHANNELS 6 Xposition Yposition Zposition Zrotation Xrotation Yrotation
        JOINT r_toes
        {
          OFFSET -0.779096 -9.8844 12.4959
          CHANNELS 6 Xposition Yposition Zposition Zrotation Xrotation Yrotation
          End Site
          {
            OFFSET 0 0 0.1
          }
        }
      }
    }
  }
}
MOTION
Frames: 4
Frame Time: 0.016667
-7.33869 92.0617 66.4153 1.88658 -2.27668 0.0653265 0 5.07867 -1.15138 -1.34948 1.83006 0.0811228 0 5.61661 1.07143 -0.910505 2.10886 -0.111163 -1.02604e-17 5.98978 0.11501 -0.563347 2.80628 0.0102318 -1.10457e-17 6.50583 -0.443523 -0.24595 3.55078 0.0574114 -1.97295e-17 7.60548 -1.50593 0.155268 3.40915 0.0683141 -2.53307e-17 9.49737 -0.914492 0.575631 3.53022 -0.255082 -2.90401e-17 10.5513 1.57691 -0.0416929 0.568959 0.042353 -1.29193e-17 4.78644 0.715339 0.183986 -1.66383 -2.01316 -1.8116e-17 4.82109 0.421791 0.538389 -8.03423 -1.06013 -2.00958e-17 4.83041 0.765062 -0.846652 -8.03119 3.36983 1.23299 -7.60731 7.53374 -0.45929 2.09486 -1.07214 12.9547 3.2495 -3.26872 -78.5816 21.7782 -11.539 29.2081 0.0598081 0.137039 2.59245 -0.272453 -12.5877 24.234 0.0496219 0.113701 1.05355 -23.7828 -3.77812 -1.23299 -7.60729 7.53365 3.99267 3.27629 1.72036 -12.9547 3.2495 -3.26872 71.4296 11.7422 6.94423 -29.2081 0.0598081 0.137039 -1.92432 -0.146609 9.31122 -24.234 0.0496218 0.113702 0.578228 -14.8117 3.9219 9.23673 -4.20556 2.0327 -0.143311 -6.94022 -12.8792 -0.852353 -38.7721 -0.655187 -3.651 13.4736 0.195037 -2.32622 -40.4017 -6.04875 1.08169 -3.81021 15.4049 0.779096 -9.8844 12.4959 -2.14321e-16 -8.02613e-16 1.98981e-17 -9.23673 -4.20556 2.0327 -1.86408 3.55144 27.277 0.852353 -38.7721 -0.655187 -0.300243 -1.11944 -0.0224742 2.32622 -40.4017 -6.04875 -2.18259 -5.6347 -15.0923 -0.779096 -9.8844 12.4959 -5.96354e-16 -5.59082e-16 -1.27471e-14 
-7.28693 92.0623 66.4989 1.78044 -2.2348 0.133454 0 5.07867 -1.15138 -1.27734 1.6358 0.0607002 0 5.61661 1.07143 -0.850841 1.97969 -0.122947 -1.02604e-17 5.98978 0.11501 -0.518607 2.73368 -0.00246399 -1.10457e-17 6.50583 -0.443523 -0.21563 3.57116 0.0446718 -1.97295e-17 7.60548 -1.50593 0.167789 3.48529 0.0497571 -2.53307e-17 9.49737 -0.914492 0.567161 3.63434 -0.272597 -2.90401e-17 10.5513 1.57691 -0.0442682 0.557955 0.0385172 -1.29193e-17 4.78644 0.715339 0.168962 -1.81328 -2.10033 -1.8116e-17 4.82109 0.421791 0.501827 -8.13263 -1.10225 -2.00958e-17 4.83041 0.765062 -0.826647 -8.10183 3.36958 1.23299 -7.60731 7.53374 -0.600369 2.02982 -1.1136 12.9547 3.2495 -3.26872 -78.8045 21.4497 -11.3764 29.2081 0.0598081 0.137039 2.51009 -0.254816 -12.1821 24.234 0.0496219 0.113701 1.1465 -22.9452 -3.63088 -1.23299 -7.60729 7.53365 3.92916 3.1802 1.66561 -12.9547 3.2495 -3.26872 71.3851 12.0657 6.87324 -29.2081 0.0598081 0.137039 -1.87056 -0.138205 9.04902 -24.234 0.0496218 0.113702 0.827036 -15.711 3.99431 9.23673 -4.20556 2.0327 -0.0522972 -6.21398 -12.2718 -0.852353 -38.7721 -0.655187 -3.37233 12.4724 0.149967 -2.32622 -40.4017 -6.04875 1.2476 -4.07341 15.3908 0.779096 -9.8844 12.4959 2.48481e-17 -7.95139e-16 1.2424e-17 -9.23673 -4.20556 2.0327 -1.8133 3.58505 27.3415 0.852353 -38.7721 -0.655187 -0.33733 -1.25757 -0.0256548 2.32622 -40.4017 -6.04875 -2.1899 -5.51973 -15.0859 -0.779096 -9.8844 12.4959 -5.96354e-16 -5.59082e-16 -1.27471e-14 
-7.22958 92.0691 66.562 1.68837 -2.20242 0.204351 0 5.07867 -1.15138 -1.20584 1.53234 0.0433625 0 5.61661 1.07143 -0.793105 1.90306 -0.131978 -1.02604e-17 5.98978 0.11501 -0.477223 2.67616 -0.012185 -1.10457e-17 6.50583 -0.443523 -0.189902 3.54658 0.0346247 -1.97295e-17 7.60548 -1.50593 0.174787 3.47935 0.0342014 -2.53307e-17 9.49737 -0.914492 0.55291 3.63474 -0.285899 -2.90401e-17 10.5513 1.57691 -0.0471147 0.556168 0.0346306 -1.29193e-17 4.78644 0.715339 0.150029 -1.9494 -2.17659 -1.8116e-17 4.82109 0.421791 0.44385 -8.20799 -1.13941 -2.00958e-17 4.83041 0.765062 -0.826872 -8.08523 3.31305 1.23299 -7.60731 7.53374 -0.746136 2.03626 -1.20527 12.9547 3.2495 -3.26872 -79.0192 21.1522 -11.1433 29.2081 0.0598081 0.137039 2.4266 -0.237557 -11.7715 24.234 0.0496219 0.113701 1.26316 -22.2118 -3.53435 -1.23299 -7.60729 7.53365 3.81526 3.14005 1.63127 -12.9547 3.2495 -3.26872 71.4218 12.5254 6.69205 -29.2081 0.0598081 0.137039 -1.82672 -0.13154 8.83536 -24.234 0.0496218 0.113702 1.16203 -17.0073 4.18768 9.23673 -4.20556 2.0327 -0.00835175 -5.49445 -11.8512 -0.852353 -38.7721 -0.655187 -3.0847 11.4317 0.108573 -2.32622 -40.4017 -6.04875 1.36955 -4.25525 15.3834 0.779096 -9.8844 12.4959 5.07252e-17 -7.9433e-16 1.16154e-17 -9.23673 -4.20556 2.0327 -1.78691 3.62195 27.3656 0.852353 -38.7721 -0.655187 -0.37681 -1.40457 -0.0291381 2.32622 -40.4017 -6.04875 -2.12878 -5.40345 -15.0818 -0.779096 -9.8844 12.4959 -5.70477e-16 -5.60699e-16 -1.27479e-14 
-7.16558 92.1019 66.5824 1.63403 -2.22519 0.313349 0 5.07867 -1.15138 -1.15993 1.49853 0.0269647 0 5.61661 1.07143 -0.757055 1.87534 -0.143461 -1.02604e-17 5.98978 0.11501 -0.453539 2.65261 -0.0250262 -1.10457e-17 6.50583 -0.443523 -0.177818 3.53231 0.0210753 -1.97295e-17 7.60548 -1.50593 0.170798 3.46807 0.0171334 -2.53307e-17 9.49737 -0.914492 0.531361 3.62545 -0.298996 -2.90401e-17 10.5513 1.57691 -0.0505583 0.556627 0.0301196 -1.29193e-17 4.78644 0.715339 0.121889 -2.06948 -2.25037 -1.8116e-17 4.82109 0.421791 0.364021 -8.2919 -1.17667 -2.00958e-17 4.83041 0.765062 -0.810018 -8.10265 3.22616 1.23299 -7.60731 7.53374 -0.93412 2.07254 -1.34446 12.9547 3.2495 -3.26872 -79.1156 20.7907 -10.9955 29.2081 0.0598081 0.137039 2.34645 -0.221574 -11.3778 24.234 0.0496219 0.113701 1.44347 -21.5461 -3.43994 -1.23299 -7.60729 7.53365 3.74303 3.11574 1.65351 -12.9547 3.2495 -3.26872 71.5043 12.9517 6.54003 -29.2081 0.0598081 0.137039 -1.80361 -0.128093 8.72277 -24.234 0.0496218 0.113702 1.49714 -18.4519 4.40405 9.23673 -4.20556 2.0327 -0.0276024 -4.80712 -11.712 -0.852353 -38.7721 -0.655187 -2.80597 10.4169 0.0734704 -2.32622 -40.4017 -6.04875 1.41126 -4.23724 15.3756 0.779096 -9.8844 12.4959 3.82033e-16 -7.83977e-16 1.26201e-18 -9.23673 -4.20556 2.0327 -1.79678 3.6855 27.2038 0.852353 -38.7721 -0.655187 -0.412804 -1.53855 -0.0324014 2.32622 -40.4017 -6.04875 -2.0012 -5.21766 -15.0744 -0.779096 -9.8844 12.4959 -2.39169e-16 -5.81406e-16 -1.27582e-14 
